<svg width="38" height="38" viewBox="0 0 38 38" fill="black" xmlns="http://www.w3.org/2000/svg">
<circle cx="19" cy="19" r="19" fill="white"/>
<mask id="path-2-inside-1_1_1159" fill="white">
<path d="M25.533 12.8967C23.9288 11.5297 21.5431 11.7756 20.0707 13.2948L19.4941 13.8891L18.9174 13.2948C17.4479 11.7756 15.0593 11.5297 13.4552 12.8967C11.6169 14.4657 11.5203 17.2817 13.1654 18.9825L18.8296 24.8311C19.1955 25.2087 19.7897 25.2087 20.1556 24.8311L25.8198 18.9825C27.4679 17.2817 27.3713 14.4657 25.533 12.8967V12.8967Z"/>
</mask>
<path d="M25.533 12.8967C23.9288 11.5297 21.5431 11.7756 20.0707 13.2948L19.4941 13.8891L18.9174 13.2948C17.4479 11.7756 15.0593 11.5297 13.4552 12.8967C11.6169 14.4657 11.5203 17.2817 13.1654 18.9825L18.8296 24.8311C19.1955 25.2087 19.7897 25.2087 20.1556 24.8311L25.8198 18.9825C27.4679 17.2817 27.3713 14.4657 25.533 12.8967V12.8967Z" stroke="black" stroke-width="2" mask="url(#path-2-inside-1_1_1159)"/>
</svg>